<mxfile host="app.diagrams.net" modified="2021-09-30T03:44:05.527Z" agent="5.0 (Windows NT 10.0; Win64; x64) AppleWebKit/537.36 (KHTML, like Gecko) Chrome/94.0.4606.61 Safari/537.36" etag="hdg8ojhPIQOU5jOIomJm" version="15.3.8" type="github">
  <diagram id="R2lEEEUBdFMjLlhIrx00" name="Page-1">
    <mxGraphModel dx="1038" dy="575" grid="1" gridSize="10" guides="1" tooltips="1" connect="1" arrows="1" fold="1" page="1" pageScale="1" pageWidth="850" pageHeight="1100" math="0" shadow="0" extFonts="Permanent Marker^https://fonts.googleapis.com/css?family=Permanent+Marker">
      <root>
        <mxCell id="0" />
        <mxCell id="1" parent="0" />
        <mxCell id="DOZqkX0SEd6aRNddLnZh-1" value="USER" style="rounded=0;whiteSpace=wrap;html=1;" vertex="1" parent="1">
          <mxGeometry x="470" y="100" width="110" height="30" as="geometry" />
        </mxCell>
        <mxCell id="DOZqkX0SEd6aRNddLnZh-2" value="&lt;u&gt;User_name&lt;/u&gt;" style="ellipse;whiteSpace=wrap;html=1;" vertex="1" parent="1">
          <mxGeometry x="350" y="50" width="100" height="40" as="geometry" />
        </mxCell>
        <mxCell id="DOZqkX0SEd6aRNddLnZh-6" value="Last_name" style="ellipse;whiteSpace=wrap;html=1;" vertex="1" parent="1">
          <mxGeometry x="740" y="70" width="100" height="40" as="geometry" />
        </mxCell>
        <mxCell id="DOZqkX0SEd6aRNddLnZh-7" value="First_name" style="ellipse;whiteSpace=wrap;html=1;" vertex="1" parent="1">
          <mxGeometry x="730" y="10" width="100" height="40" as="geometry" />
        </mxCell>
        <mxCell id="DOZqkX0SEd6aRNddLnZh-8" value="" style="endArrow=none;html=1;exitX=1;exitY=1;exitDx=0;exitDy=0;" edge="1" parent="1" source="DOZqkX0SEd6aRNddLnZh-2" target="DOZqkX0SEd6aRNddLnZh-1">
          <mxGeometry width="50" height="50" relative="1" as="geometry">
            <mxPoint x="310" y="240" as="sourcePoint" />
            <mxPoint x="360" y="190" as="targetPoint" />
          </mxGeometry>
        </mxCell>
        <mxCell id="DOZqkX0SEd6aRNddLnZh-15" value="Name" style="ellipse;whiteSpace=wrap;html=1;" vertex="1" parent="1">
          <mxGeometry x="610" y="50" width="100" height="40" as="geometry" />
        </mxCell>
        <mxCell id="DOZqkX0SEd6aRNddLnZh-16" value="" style="endArrow=none;html=1;entryX=0;entryY=0.5;entryDx=0;entryDy=0;exitX=1;exitY=0;exitDx=0;exitDy=0;" edge="1" parent="1" source="DOZqkX0SEd6aRNddLnZh-1" target="DOZqkX0SEd6aRNddLnZh-15">
          <mxGeometry width="50" height="50" relative="1" as="geometry">
            <mxPoint x="310" y="240" as="sourcePoint" />
            <mxPoint x="360" y="190" as="targetPoint" />
          </mxGeometry>
        </mxCell>
        <mxCell id="DOZqkX0SEd6aRNddLnZh-17" value="" style="endArrow=none;html=1;entryX=0.952;entryY=0.76;entryDx=0;entryDy=0;entryPerimeter=0;exitX=0;exitY=0.5;exitDx=0;exitDy=0;" edge="1" parent="1" source="DOZqkX0SEd6aRNddLnZh-6" target="DOZqkX0SEd6aRNddLnZh-15">
          <mxGeometry width="50" height="50" relative="1" as="geometry">
            <mxPoint x="310" y="240" as="sourcePoint" />
            <mxPoint x="360" y="190" as="targetPoint" />
          </mxGeometry>
        </mxCell>
        <mxCell id="DOZqkX0SEd6aRNddLnZh-18" value="" style="endArrow=none;html=1;entryX=0;entryY=0.5;entryDx=0;entryDy=0;exitX=1;exitY=0;exitDx=0;exitDy=0;" edge="1" parent="1" source="DOZqkX0SEd6aRNddLnZh-15" target="DOZqkX0SEd6aRNddLnZh-7">
          <mxGeometry width="50" height="50" relative="1" as="geometry">
            <mxPoint x="310" y="240" as="sourcePoint" />
            <mxPoint x="360" y="190" as="targetPoint" />
          </mxGeometry>
        </mxCell>
        <mxCell id="DOZqkX0SEd6aRNddLnZh-19" value="" style="endArrow=none;html=1;entryX=0;entryY=1;entryDx=0;entryDy=0;exitX=1;exitY=0.5;exitDx=0;exitDy=0;" edge="1" parent="1" source="DOZqkX0SEd6aRNddLnZh-20" target="DOZqkX0SEd6aRNddLnZh-1">
          <mxGeometry width="50" height="50" relative="1" as="geometry">
            <mxPoint x="305" y="165" as="sourcePoint" />
            <mxPoint x="360" y="190" as="targetPoint" />
          </mxGeometry>
        </mxCell>
        <mxCell id="DOZqkX0SEd6aRNddLnZh-20" value="&lt;b&gt;d&lt;/b&gt;" style="ellipse;whiteSpace=wrap;html=1;aspect=fixed;" vertex="1" parent="1">
          <mxGeometry x="260" y="140" width="30" height="30" as="geometry" />
        </mxCell>
        <mxCell id="DOZqkX0SEd6aRNddLnZh-21" value="" style="endArrow=none;html=1;entryX=0;entryY=0.5;entryDx=0;entryDy=0;exitX=1;exitY=0;exitDx=0;exitDy=0;" edge="1" parent="1" source="DOZqkX0SEd6aRNddLnZh-30" target="DOZqkX0SEd6aRNddLnZh-20">
          <mxGeometry width="50" height="50" relative="1" as="geometry">
            <mxPoint x="240" y="220" as="sourcePoint" />
            <mxPoint x="360" y="190" as="targetPoint" />
          </mxGeometry>
        </mxCell>
        <mxCell id="DOZqkX0SEd6aRNddLnZh-22" value="" style="endArrow=none;html=1;entryX=0.5;entryY=1;entryDx=0;entryDy=0;exitX=0.5;exitY=0;exitDx=0;exitDy=0;" edge="1" parent="1" source="DOZqkX0SEd6aRNddLnZh-29" target="DOZqkX0SEd6aRNddLnZh-20">
          <mxGeometry width="50" height="50" relative="1" as="geometry">
            <mxPoint x="335" y="240" as="sourcePoint" />
            <mxPoint x="360" y="190" as="targetPoint" />
          </mxGeometry>
        </mxCell>
        <mxCell id="DOZqkX0SEd6aRNddLnZh-23" value="" style="endArrow=none;html=1;entryX=1;entryY=0.5;entryDx=0;entryDy=0;exitX=0;exitY=0;exitDx=0;exitDy=0;" edge="1" parent="1" source="DOZqkX0SEd6aRNddLnZh-28" target="DOZqkX0SEd6aRNddLnZh-20">
          <mxGeometry width="50" height="50" relative="1" as="geometry">
            <mxPoint x="420" y="230" as="sourcePoint" />
            <mxPoint x="360" y="190" as="targetPoint" />
          </mxGeometry>
        </mxCell>
        <mxCell id="DOZqkX0SEd6aRNddLnZh-24" value="" style="endArrow=none;html=1;entryX=0.5;entryY=1;entryDx=0;entryDy=0;exitX=0.5;exitY=0;exitDx=0;exitDy=0;" edge="1" parent="1" source="DOZqkX0SEd6aRNddLnZh-27" target="DOZqkX0SEd6aRNddLnZh-1">
          <mxGeometry width="50" height="50" relative="1" as="geometry">
            <mxPoint x="525" y="200" as="sourcePoint" />
            <mxPoint x="360" y="190" as="targetPoint" />
          </mxGeometry>
        </mxCell>
        <mxCell id="DOZqkX0SEd6aRNddLnZh-25" value="" style="endArrow=none;html=1;entryX=1;entryY=1;entryDx=0;entryDy=0;exitX=0;exitY=0;exitDx=0;exitDy=0;" edge="1" parent="1" source="DOZqkX0SEd6aRNddLnZh-26" target="DOZqkX0SEd6aRNddLnZh-1">
          <mxGeometry width="50" height="50" relative="1" as="geometry">
            <mxPoint x="660" y="230" as="sourcePoint" />
            <mxPoint x="360" y="190" as="targetPoint" />
          </mxGeometry>
        </mxCell>
        <mxCell id="DOZqkX0SEd6aRNddLnZh-26" value="OWNER" style="rounded=0;whiteSpace=wrap;html=1;" vertex="1" parent="1">
          <mxGeometry x="650" y="210" width="110" height="30" as="geometry" />
        </mxCell>
        <mxCell id="DOZqkX0SEd6aRNddLnZh-27" value="MANAGER" style="rounded=0;whiteSpace=wrap;html=1;" vertex="1" parent="1">
          <mxGeometry x="470" y="210" width="110" height="30" as="geometry" />
        </mxCell>
        <mxCell id="DOZqkX0SEd6aRNddLnZh-28" value="SERVICE_WRITER" style="rounded=0;whiteSpace=wrap;html=1;" vertex="1" parent="1">
          <mxGeometry x="330" y="210" width="110" height="30" as="geometry" />
        </mxCell>
        <mxCell id="DOZqkX0SEd6aRNddLnZh-29" value="SALESPEOPLE" style="rounded=0;whiteSpace=wrap;html=1;" vertex="1" parent="1">
          <mxGeometry x="200" y="210" width="110" height="30" as="geometry" />
        </mxCell>
        <mxCell id="DOZqkX0SEd6aRNddLnZh-30" value="INVENTORY_CLERK" style="rounded=0;whiteSpace=wrap;html=1;" vertex="1" parent="1">
          <mxGeometry x="50" y="210" width="130" height="30" as="geometry" />
        </mxCell>
        <mxCell id="DOZqkX0SEd6aRNddLnZh-33" style="edgeStyle=orthogonalEdgeStyle;rounded=0;orthogonalLoop=1;jettySize=auto;html=1;exitX=0.5;exitY=1;exitDx=0;exitDy=0;" edge="1" parent="1" source="DOZqkX0SEd6aRNddLnZh-20" target="DOZqkX0SEd6aRNddLnZh-20">
          <mxGeometry relative="1" as="geometry" />
        </mxCell>
        <mxCell id="DOZqkX0SEd6aRNddLnZh-35" value="ADD" style="rhombus;whiteSpace=wrap;html=1;" vertex="1" parent="1">
          <mxGeometry x="85" y="280" width="60" height="80" as="geometry" />
        </mxCell>
        <mxCell id="DOZqkX0SEd6aRNddLnZh-37" value="VEHICLE" style="rounded=0;whiteSpace=wrap;html=1;" vertex="1" parent="1">
          <mxGeometry x="60" y="410" width="110" height="30" as="geometry" />
        </mxCell>
        <mxCell id="DOZqkX0SEd6aRNddLnZh-38" value="" style="endArrow=none;html=1;entryX=0.5;entryY=1;entryDx=0;entryDy=0;" edge="1" parent="1" source="DOZqkX0SEd6aRNddLnZh-35" target="DOZqkX0SEd6aRNddLnZh-30">
          <mxGeometry width="50" height="50" relative="1" as="geometry">
            <mxPoint x="310" y="240" as="sourcePoint" />
            <mxPoint x="360" y="190" as="targetPoint" />
          </mxGeometry>
        </mxCell>
        <mxCell id="DOZqkX0SEd6aRNddLnZh-39" value="" style="endArrow=none;html=1;exitX=0.5;exitY=1;exitDx=0;exitDy=0;entryX=0.5;entryY=0;entryDx=0;entryDy=0;" edge="1" parent="1" source="DOZqkX0SEd6aRNddLnZh-35" target="DOZqkX0SEd6aRNddLnZh-37">
          <mxGeometry width="50" height="50" relative="1" as="geometry">
            <mxPoint x="310" y="240" as="sourcePoint" />
            <mxPoint x="360" y="190" as="targetPoint" />
          </mxGeometry>
        </mxCell>
      </root>
    </mxGraphModel>
  </diagram>
</mxfile>
